<svg width="60" height="61" viewBox="0 0 60 61" fill="none" xmlns="http://www.w3.org/2000/svg">
<path d="M57.1875 42.6875H56.25V20.4781C56.2532 19.3708 56.0367 18.2739 55.613 17.2509C55.1893 16.2279 54.5668 15.2992 53.7816 14.5184L50.625 11.3619V3.3125C50.625 3.06386 50.5262 2.8254 50.3504 2.64959C50.1746 2.47377 49.9361 2.375 49.6875 2.375H2.8125C2.56386 2.375 2.3254 2.47377 2.14959 2.64959C1.97377 2.8254 1.875 3.06386 1.875 3.3125V27.6875C1.875 27.9361 1.97377 28.1746 2.14959 28.3504C2.3254 28.5262 2.56386 28.625 2.8125 28.625H3.75V37.0625C3.74356 38.8893 4.1044 40.6988 4.81109 42.3834C5.51778 44.0679 6.5559 45.5933 7.86375 46.8687L19.0153 58.3437C19.1027 58.4336 19.2072 58.5051 19.3226 58.5538C19.4381 58.6026 19.5622 58.6277 19.6875 58.6277C19.8128 58.6277 19.9369 58.6026 20.0524 58.5538C20.1678 58.5051 20.2723 58.4336 20.3597 58.3437L31.5066 46.8762C32.8161 45.6003 33.8556 44.0739 34.5631 42.3879C35.2707 40.702 35.6318 38.8909 35.625 37.0625V28.625H37.5V38C37.4998 38.8739 37.6748 39.7391 38.0148 40.5442C38.3547 41.3493 38.8526 42.0781 39.4791 42.6875H38.4375C38.1889 42.6875 37.9504 42.7863 37.7746 42.9621C37.5988 43.1379 37.5 43.3764 37.5 43.625V49.25C37.5 49.4986 37.5988 49.7371 37.7746 49.9129C37.9504 50.0887 38.1889 50.1875 38.4375 50.1875H57.1875C57.4361 50.1875 57.6746 50.0887 57.8504 49.9129C58.0262 49.7371 58.125 49.4986 58.125 49.25V43.625C58.125 43.3764 58.0262 43.1379 57.8504 42.9621C57.6746 42.7863 57.4361 42.6875 57.1875 42.6875ZM33.75 37.0625C33.754 38.6461 33.4392 40.2143 32.8244 41.6737C32.2097 43.1331 31.3075 44.4538 30.1716 45.5572L19.6875 56.3422L9.20344 45.5572L9.19406 45.5478C8.06061 44.445 7.16054 43.1255 6.5474 41.6678C5.93426 40.2101 5.62057 38.6439 5.625 37.0625V26.4622L19.6875 21.1887L33.75 26.4622V37.0625ZM20.0166 19.3091C19.9447 19.2871 19.8704 19.2739 19.7953 19.2697C19.1141 18.13 18.753 16.8277 18.75 15.5C18.7465 14.1222 19.1227 12.7701 19.8371 11.592C20.5516 10.4139 21.5768 9.45539 22.8001 8.82163C24.0235 8.18787 25.3979 7.90337 26.7723 7.99932C28.1468 8.09528 29.4682 8.568 30.5917 9.36561C31.7152 10.1632 32.5972 11.2549 33.141 12.5208C33.6849 13.7867 33.8695 15.178 33.6746 16.542C33.4797 17.9059 32.9128 19.1898 32.0362 20.2528C31.1597 21.3158 30.0072 22.1167 28.7053 22.5678L20.0166 19.3091ZM35.0166 24.9341L31.1625 23.4894C32.7232 22.5338 33.9706 21.1428 34.7513 19.4876C35.5319 17.8324 35.8118 15.9852 35.5565 14.173C35.3012 12.3609 34.5218 10.6629 33.3141 9.28782C32.1065 7.91278 30.5234 6.92066 28.7594 6.4335C26.9953 5.94633 25.1274 5.98535 23.3853 6.54576C21.6431 7.10618 20.1028 8.16354 18.9537 9.58782C17.8045 11.0121 17.0967 12.7412 16.9173 14.5624C16.7379 16.3836 17.0946 18.2176 17.9437 19.8387L4.35844 24.9341C4.17963 25.0011 4.02555 25.1211 3.91681 25.2781C3.80808 25.4351 3.74988 25.6215 3.75 25.8125V4.25H48.75V25.5153L41.9531 19.1056C41.2394 18.4239 40.29 18.0441 39.303 18.0457C38.316 18.0473 37.3678 18.43 36.6562 19.1141C35.9563 19.8201 35.5636 20.774 35.5636 21.7681C35.5636 22.7623 35.9563 23.7162 36.6562 24.4222L38.9869 26.75H35.625V25.8125C35.6251 25.6215 35.5669 25.4351 35.4582 25.2781C35.3495 25.1211 35.1954 25.0011 35.0166 24.9341ZM39.375 38V28.625H40.8619L45.2747 33.0378L46.6003 31.7122L37.9847 23.0966C37.8113 22.9213 37.6742 22.7136 37.5811 22.4854C37.488 22.2571 37.4408 22.0128 37.4422 21.7663C37.4449 21.2685 37.6453 20.7921 37.9992 20.442C38.3532 20.0919 38.8317 19.8968 39.3295 19.8995C39.8273 19.9023 40.3037 20.1026 40.6537 20.4566L49.0444 28.37C49.1776 28.4956 49.3447 28.5795 49.525 28.6112C49.7054 28.6429 49.891 28.6211 50.0591 28.5486C50.2272 28.476 50.3704 28.3558 50.471 28.2027C50.5715 28.0497 50.6251 27.8706 50.625 27.6875V14.0131L52.4559 15.8441C53.0663 16.4512 53.5502 17.1734 53.8796 17.9689C54.209 18.7643 54.3774 19.6172 54.375 20.4781V42.6875H44.0625C42.8198 42.686 41.6283 42.1917 40.7496 41.3129C39.8708 40.4342 39.3765 39.2427 39.375 38ZM56.25 48.3125H39.375V44.5625H56.25V48.3125Z" fill="#01C77F"/>
<path d="M19.3265 23.0722L8.07654 27.7597C7.90577 27.8309 7.7599 27.9511 7.6573 28.1051C7.55471 28.2591 7.49997 28.44 7.49998 28.625V36.9285C7.4961 38.2834 7.76108 39.6257 8.27958 40.8775C8.79808 42.1294 9.55979 43.2659 10.5206 44.2213L19.0247 52.7253C19.2005 52.9011 19.4389 52.9998 19.6875 52.9998C19.9361 52.9998 20.1745 52.9011 20.3503 52.7253L28.8544 44.2213C29.8152 43.2659 30.5769 42.1294 31.0954 40.8775C31.6139 39.6257 31.8789 38.2834 31.875 36.9285V28.625C31.875 28.44 31.8203 28.2591 31.7177 28.1051C31.6151 27.9511 31.4692 27.8309 31.2984 27.7597L20.0484 23.0722C19.9341 23.0245 19.8114 22.9999 19.6875 22.9999C19.5636 22.9999 19.4409 23.0245 19.3265 23.0722ZM30 29.2503V36.9285C30.003 38.0371 29.7862 39.1353 29.362 40.1596C28.9378 41.1838 28.3147 42.1138 27.5287 42.8956L19.6875 50.7369L11.8462 42.8956C11.0602 42.1138 10.4371 41.1838 10.0129 40.1596C9.58876 39.1353 9.37192 38.0371 9.37498 36.9285V29.2503L19.6875 24.9528L30 29.2503Z" fill="#01C77F"/>
<path d="M5.625 7.0625V10.8125H7.5V8H10.3125V6.125H6.5625C6.31386 6.125 6.0754 6.22377 5.89959 6.39959C5.72377 6.5754 5.625 6.81386 5.625 7.0625Z" fill="#01C77F"/>
<path d="M45 10.8125H46.875V7.0625C46.875 6.81386 46.7762 6.5754 46.6004 6.39959C46.4246 6.22377 46.1861 6.125 45.9375 6.125H42.1875V8H45V10.8125Z" fill="#01C77F"/>
<path d="M17.0353 36.8357L15.7097 38.1613L19.0247 41.4754C19.2005 41.6511 19.4389 41.7499 19.6875 41.7499C19.9361 41.7499 20.1745 41.6511 20.3503 41.4754L28.305 33.5207L26.9793 32.1951L19.6875 39.4869L17.0353 36.8357Z" fill="#01C77F"/>
</svg>
