<svg width="60" height="61" viewBox="0 0 60 61" fill="none" xmlns="http://www.w3.org/2000/svg">
<path d="M44.9869 34.4253C43.4072 33.1091 41.491 32.2925 39.4463 32.0647L34.1803 31.4797L33.1041 30.4034L48.0403 9.86656L41.7188 1.4375H18.2813L11.9597 9.86656L26.896 30.4034L25.8197 31.4797L20.5538 32.0647C18.5091 32.2916 16.5928 33.1081 15.0131 34.4253C12.6216 36.4184 11.25 39.3472 11.25 42.4597V49.2481C11.2463 50.9994 11.925 52.6466 13.1616 53.885C14.4019 55.1291 16.0538 55.8125 17.8125 55.8125H18.75V59.5625H41.25V55.8125H44.0625C46.6472 55.8125 48.75 53.7097 48.75 51.125V42.4597C48.75 39.3472 47.3784 36.4184 44.9869 34.4253ZM30 48.3125V46.4375C31.0341 46.4375 31.875 47.2784 31.875 48.3125V50.1875H34.6875C35.2041 50.1875 35.625 50.6075 35.625 51.125V53C35.625 53.5175 35.2041 53.9375 34.6875 53.9375H28.125V50.1875C29.1591 50.1875 30 49.3466 30 48.3125ZM29.8106 29.5625L25.5497 10.8125H34.4513L30.1903 29.5625H29.8106ZM26.25 8.9375L30 3.93687L33.75 8.9375H26.25ZM36.3731 10.8125H45.0338L32.4366 28.1337L36.3731 10.8125ZM37.5 8.9375L41.25 3.93687L45 8.9375H37.5ZM35.625 8.31312L31.875 3.3125H39.375L35.625 8.31312ZM24.375 8.31312L20.625 3.3125H28.125L24.375 8.31312ZM22.5 8.9375H15L18.75 3.93687L22.5 8.9375ZM23.6269 10.8125L27.5635 28.1337L14.9663 10.8125H23.6269ZM31.4869 31.4375L32.4244 32.375L30.5494 34.25H29.4506L27.5756 32.375L28.5131 31.4375H31.4869ZM34.1906 35.4237C34.0163 37.1684 33.5747 38.8887 32.8988 40.5097L31.95 35.4997L34.0931 33.3566L34.3931 33.3903L34.1906 35.4237ZM30 44.5625C29.7938 44.5625 29.5988 44.6038 29.4122 44.6656L28.4288 43.0916C28.4138 43.0672 28.4006 43.0419 28.3856 43.0184L29.8247 36.125H30.1613L31.501 43.2041L30.6131 44.6244C30.4125 44.5916 30.21 44.5625 30 44.5625ZM28.0416 35.4922L27.0291 40.3428C26.3925 38.7706 25.9781 37.1084 25.8094 35.4237L25.606 33.3903L25.906 33.3566L28.0416 35.4922ZM23.9438 35.6103C24.0563 36.7334 24.2672 37.8481 24.5719 38.9375H23.1535C22.8272 38.0047 22.2085 36.0612 21.8466 33.8075L23.7422 33.5966L23.9438 35.6103ZM25.4363 41.3797C25.8356 42.3162 26.2997 43.2247 26.8388 44.0863L27.6956 45.4578C26.4966 44.6188 25.321 43.43 24.6085 42.6209L25.4363 41.3797ZM32.3644 45.4259C32.356 45.4184 32.3466 45.4109 32.3381 45.4044L33.1613 44.0872C33.7003 43.2247 34.1644 42.3172 34.5638 41.3806L35.3897 42.62C34.7841 43.3063 33.6235 44.5363 32.3644 45.4259ZM35.4281 38.9375C35.7328 37.8481 35.9438 36.7334 36.0563 35.6103L36.2578 33.5966L38.1535 33.8075C37.7916 36.0556 37.1728 38.0028 36.8456 38.9375H35.4281ZM14.4891 52.5613C13.6069 51.6772 13.1222 50.5025 13.125 49.25V42.4597C13.125 39.905 14.251 37.5012 16.2131 35.8662C17.3081 34.9531 18.6056 34.3541 19.9903 34.0719C20.5247 37.4319 21.5803 40.1019 21.6291 40.2238L21.8653 40.8125H23.5613L22.2778 42.7381L22.7063 43.2734C22.8253 43.4225 25.4531 46.6737 28.126 47.8644V48.3125H20.626V41.9712C20.626 40.3213 19.7091 38.8372 18.2325 38.0984L17.3935 39.7756C18.2297 40.1947 18.75 41.0356 18.75 41.9712V48.5206C17.446 48.8319 16.2469 49.49 15.2747 50.4613L16.6003 51.7869C17.6325 50.7556 19.005 50.1875 20.4647 50.1875H26.25V53.9375H17.8125C16.5553 53.9375 15.3741 53.4491 14.4891 52.5613ZM46.875 51.125C46.875 52.6756 45.6131 53.9375 44.0625 53.9375H41.25V48.3125H45V46.4375H41.25V41.9712C41.25 41.0356 41.7703 40.1938 42.6066 39.7756L41.7675 38.0984C40.2919 38.8381 39.375 40.3222 39.375 41.9712V57.6875H20.625V55.8125H34.6875C36.2381 55.8125 37.5 54.5506 37.5 53V51.125C37.5 49.5744 36.2381 48.3125 34.6875 48.3125H33.75C33.75 47.8241 33.6497 47.36 33.4791 46.9325C35.5116 45.4859 37.2141 43.3737 37.2947 43.2734L37.7231 42.7381L36.4397 40.8125H38.1356L38.371 40.2228C38.4197 40.1009 39.4753 37.4309 40.0097 34.0709C41.3953 34.3541 42.6928 34.9522 43.7869 35.8653C45.7491 37.5013 46.875 39.905 46.875 42.4597V51.125Z" fill="#01C77F"/>
<path d="M49.6875 8.9375H59.0625V10.8125H49.6875V8.9375Z" fill="#01C77F"/>
<path d="M48.7784 3.86591L57.8347 1.43778L58.3203 3.24903L49.264 5.67716L48.7784 3.86591Z" fill="#01C77F"/>
<path d="M1.68677 3.25745L2.17239 1.4462L11.2286 3.87432L10.743 5.68557L1.68677 3.25745Z" fill="#01C77F"/>
<path d="M0.9375 8.9375H10.3125V10.8125H0.9375V8.9375Z" fill="#01C77F"/>
<path d="M1.68835 16.4926L10.7446 14.0644L11.2302 15.8757L2.17398 18.3038L1.68835 16.4926Z" fill="#01C77F"/>
<path d="M48.7863 15.8759L49.2719 14.0647L58.3282 16.4928L57.8425 18.304L48.7863 15.8759Z" fill="#01C77F"/>
</svg>
